<svg xmlns="http://www.w3.org/2000/svg" xmlns:xlink="http://www.w3.org/1999/xlink" version="1.1" x="0px" y="0px" viewBox="0 0 1000 455.625" enable-background="new 0 0 1000 364.5" xml:space="preserve"><path d="M9.699,287.112c0.158,5.812,0.315,11.707,0.483,17.52c0.445,16.234,12.567,29.358,27.467,29.5  c117.992,1.122,235.975,3.718,353.977,3.726c0.34,8.075,5.596,14.065,13.049,13.805c7.565-0.242,11.241-7.119,11.241-15.363  c0-0.02,0-0.02,0-0.03c9.282-0.173,13.013-0.365,18.519-0.547c4.384-4,9.525-7.996,14.501-11.995l4.028-31.55l28.321-0.248  l0.403,9.676l20.384-0.839l-0.376-9.012l18.535-0.167l0.393,9.281l20.394-0.833l-0.376-8.645l17.102-0.144l0.306,7.171l20.379-0.829  l-0.278-6.528l16.763-0.147l0.348,8.297l20.395-0.834l-0.334-7.659l19.971-0.172l0.406,9.667l20.391-0.824l-0.396-9.019l15.314-0.14  l0.387,9.046l20.38-0.83l-0.356-8.413l18.534-0.17l0.37,8.697l20.377-0.828l-0.328-8.037l16.579-0.153l0.481,11.442l20.396-0.836  l-0.467-10.779l16.928-0.146l0.459,10.937l20.38-0.83l-0.437-10.284l15.323-0.134l0.434,10.328l20.39-0.826l-0.414-9.697  l15.314-0.141l0.421,9.721l20.373-0.82l-0.384-9.071l11.925-0.098l0.46,10.49l20.379-0.827l-0.424-9.846l13.541-0.115l0.478,11.372  l20.39-0.826l-0.48-11.334c6.146-1.083,11.887-3.39,17.07-6.862l10.651,5.984l9.926-17.896l-6.319-3.539  c3.004-5.335,4.848-11.131,5.485-17.243l12.158-1.177l-1.994-20.391l-12.62,1.2c-1.454-4.005-3.488-7.802-6.055-11.302l6.92-5.41  l-12.578-16.17l-10.262,8.05c-5.061-2.581-10.49-4.154-16.148-4.676l-0.359-8.465l-20.379,0.829l0.315,7.557l-13.544,0.125  l-0.391-9.092l-20.38,0.83l0.363,8.45l-11.937,0.103l-0.414-9.847l-20.389,0.826l0.371,9.22l-15.303,0.133l-0.389-9.26  l-20.395,0.834l0.374,8.62l-15.319,0.125l-0.37-8.639l-20.38,0.828l0.344,7.996l-16.927,0.147l-0.343-8.142l-20.377,0.829  l0.306,7.495l-16.588,0.15l-0.458-10.892l-20.389,0.826l0.444,10.24l-18.53,0.162l-0.447-10.522l-20.389,0.824l0.407,9.884  l-15.301,0.134l-0.434-9.915l-20.38,0.83l0.407,9.269l-19.97,0.171l-0.49-11.28l-20.379,0.828l0.449,10.623l-16.762,0.146  l-0.512-12.41l-20.393,0.833l0.513,11.756l-17.105,0.154l-0.438-10.294l-20.379,0.829l0.412,9.651l-18.536,0.17l-0.431-9.922  l-20.373,0.819l0.39,9.284l-12.96,0.114l4.141-32.43c-5.286-2.341-10.57-4.682-15.863-7.019c-1.225-0.526-1.688-1.296-1.736-2.683  c-0.788-28.621-1.587-57.23-2.366-85.829c-5.588-18.817-11.177-37.583-16.746-56.379c-0.557-1.823-1.43-2.4-3.155-2.055  c-1.764,0.364-3.518,0.719-5.291,1.073c-1.885,0.365-2.525,1.367-2.229,3.433c2.562,18.188,5.134,36.377,7.715,54.566  c-0.688,11.241-1.393,22.493-2.08,33.714c-0.083,1.347-0.547,2.035-1.681,2.572c-5.03,2.399-10.052,4.759-15.073,7.13  c-0.428-2.583-0.873-5.226-1.31-7.93c-6.581-39.143-9.895-46.819-12.476-50.941c-5.866-9.317-14.526-15.717-23.215-17.146  c-6.517-1.073-12.819,0.678-17.702,4.912c-5.828,5.063-33.898,34.554-49.308,50.849c-8.011-3.515-16.021-7.079-24.041-10.604  c-0.863-0.364-1.532-0.334-2.34,0.131c-3.926,2.269-7.843,4.557-11.761,6.847c-3.86-2.279-7.731-4.538-11.593-6.816  c-4.02-2.36-7.362-2.592-11.632-0.76c-23.957,10.239-47.934,20.467-71.892,30.726c-4.585,1.956-7.872,6.42-8.651,11.708  c-1.355,9.287-2.711,18.553-4.066,27.851c-42.707,24.832-85.426,49.664-128.143,74.536c-9.469,5.499-16.531,11.13-20.031,23.151  C8.827,265.338,9.394,276.053,9.699,287.112z M333.906,109.844c14.721-15.485,30.344-31.75,36.471-37.745  c0.909,0.648,2.06,1.762,3.146,3.382c2.487,5.875,7.101,30.899,11.082,56.753C367.713,124.781,350.799,117.287,333.906,109.844z   M23.568,286.534c-0.391-14.391,7.769-27.456,20.235-32.306c14.351-5.59,28.701-11.17,43.061-16.771  c4.521,2.501,9.459,8.993,10.619,14.928c0.361,1.894,2.553,2.492,3.694,1.013c7.797-10.138,15.585-20.275,23.42-30.412  c20.718-6.38,34.864-0.071,35.532,23.89c0.344,12.346,0.678,24.7,1.021,37.056c0.344,12.589-3.184,20.275-12.81,27.303  c-8.93,6.532-17.785,8.325-28.201,8.224c-27.466-0.263-54.913-0.526-82.371-0.77c-7.435-0.071-13.515-6.563-13.729-14.685  C23.884,298.201,23.734,292.358,23.568,286.534z"/><text x="0" y="379.5" fill="#000000" font-size="5px" font-weight="bold" font-family="'Helvetica Neue', Helvetica, Arial-Unicode, Arial, Sans-serif">Created by Optimus Prime</text><text x="0" y="384.5" fill="#000000" font-size="5px" font-weight="bold" font-family="'Helvetica Neue', Helvetica, Arial-Unicode, Arial, Sans-serif">from the Noun Project</text></svg>