<svg xmlns="http://www.w3.org/2000/svg" xmlns:xlink="http://www.w3.org/1999/xlink" version="1.1" x="0px" y="0px" viewBox="0 0 90 112.5" enable-background="new 0 0 90 90" xml:space="preserve"><g><path d="M78.304,46.304c-3.009,0-5.455,2.447-5.455,5.455c0,3.01,2.445,5.457,5.455,5.457c3.009,0,5.458-2.447,5.458-5.457   C83.762,48.751,81.312,46.304,78.304,46.304z M78.304,53.306c-0.854,0-1.546-0.691-1.546-1.547c0-0.854,0.692-1.545,1.546-1.545   c0.854,0,1.547,0.691,1.547,1.545S79.158,53.306,78.304,53.306z"/><path d="M73.882,46.823c-1.141-0.893-2.978-1.995-5.467-2.537v-0.692c2.795,0.573,4.812,1.806,6.021,2.78   c1.09-0.787,2.424-1.258,3.868-1.258c0.784,0,2.229,0.396,2.229,0.396l-0.059-5.563c0,0-5.692,0.131-9.04-0.022v-2.073   l-0.643-0.612v2.65c-0.184-0.012-0.357-0.024-0.518-0.039v-1.759l-0.812-0.857v2.516c-0.76-0.012-1.152-0.027-1.152-0.027   l-1.839-6.675l-14.266-0.933c0,0-0.607,0.433-0.534,0.802c0.074,0.369,1.476,0.962,1.476,0.962l-1.499,5.781   c-0.003,0.013,0.002,0.026,0.001,0.04l-2.575,2.809l0.655,0.325c1.534-1.297,3.515-2.085,5.676-2.085   c4.857,0,8.808,3.951,8.808,8.806c0,0.852-0.127,1.672-0.354,2.451h7.838c-0.003-0.09-0.014-0.178-0.014-0.27   C71.682,49.786,72.535,48.036,73.882,46.823z M58.893,40.039c-0.535-0.176-1.053-0.302-1.507-0.338h-4.362l1.007-5.855h4.862   V40.039z M67.05,45.286l-2.467-0.003c-0.819-2.2-2.576-3.772-4.328-4.681v-6.757h5.289l1.506,6.483V45.286z"/><path d="M62.744,51.036c0.071-0.418,0.109-0.848,0.109-1.287c0-0.002,0-0.004,0-0.004l0.324-0.104v-3.402l-1.242-1.053   l-0.487,0.155c-0.249-0.35-0.526-0.678-0.829-0.98l0.156-0.302l-2.406-2.405l-1.618,0.13l-0.237,0.458   c-0.415-0.07-0.841-0.107-1.275-0.107c-0.002,0-0.003,0-0.005,0l-0.104-0.324h-3.456l-0.864,1.054l0.175,0.569   c-0.408,0.274-0.788,0.589-1.135,0.936l-0.302-0.156l-2.444,2.443l-0.021,1.446l0.652,0.338c-0.073,0.426-0.112,0.863-0.112,1.309   c0,0.002,0,0.004,0,0.004l-0.324,0.105v3.455l1.135,1l0.575-0.184c0.254,0.361,0.538,0.697,0.848,1.008l-0.155,0.303l2.443,2.443   l1.474-0.006l0.322-0.623c0.422,0.072,0.855,0.109,1.298,0.109c0.003,0,0.006,0,0.009,0l0.1,0.324h3.402l1.08-1.16l-0.182-0.568   c0.35-0.25,0.677-0.527,0.979-0.83l0.301,0.156l2.406-2.404l-0.103-1.594L62.744,51.036z M55.238,53.179   c-1.895,0-3.43-1.535-3.43-3.43s1.535-3.429,3.43-3.429s3.43,1.534,3.43,3.429S57.133,53.179,55.238,53.179z"/><circle cx="55.209" cy="49.769" r="0.623"/><polygon points="81.562,41.065 80.827,40.76 80.827,45.625 81.746,46.176  "/></g><g><path d="M36.891,50.862c-1.931,0-3.5,1.568-3.5,3.5c0,1.93,1.569,3.502,3.5,3.502s3.502-1.572,3.502-3.502   C40.393,52.431,38.821,50.862,36.891,50.862z M36.891,55.354c-0.548,0-0.991-0.445-0.991-0.992s0.443-0.992,0.991-0.992   s0.992,0.443,0.992,0.992C37.883,54.909,37.438,55.354,36.891,55.354z"/><path d="M13.299,50.862c-1.931,0-3.5,1.568-3.5,3.5c0,1.93,1.569,3.502,3.5,3.502c1.93,0,3.502-1.572,3.502-3.502   C16.801,52.431,15.229,50.862,13.299,50.862z M13.299,55.354c-0.548,0-0.991-0.445-0.991-0.992s0.443-0.992,0.991-0.992   s0.992,0.443,0.992,0.992C14.291,54.909,13.847,55.354,13.299,55.354z"/><rect x="18.034" y="54.44" width="14.123" height="0.795"/><rect x="18.034" y="53.009" width="14.123" height="0.795"/><rect x="18.034" y="51.538" width="14.123" height="0.795"/><path d="M43.472,33.319h-0.482l-0.481,0.665v8.986H6.238v6.741h36.27h1.445v-6.741v-8.986L43.472,33.319z M14.021,48.53H13.38   v-4.379h0.642V48.53z M25.416,48.53h-0.642v-4.379h0.642V48.53z M36.811,48.53h-0.642v-4.379h0.642V48.53z"/></g><text x="0" y="105" fill="#000000" font-size="5px" font-weight="bold" font-family="'Helvetica Neue', Helvetica, Arial-Unicode, Arial, Sans-serif">Created by Daniel Ensor</text><text x="0" y="110" fill="#000000" font-size="5px" font-weight="bold" font-family="'Helvetica Neue', Helvetica, Arial-Unicode, Arial, Sans-serif">from the Noun Project</text></svg>