<svg xmlns="http://www.w3.org/2000/svg" viewBox="0 0 64 80" x="0px" y="0px"><title>fence-yard-garden-furniture-construction</title><g><path d="M55,41.414l1-1,1,1V60H55Zm-8,0,1-1,1,1V60H47Zm-8,0,1-1,1,1V60H39Zm-8,0,1-1,1,1V60H31Zm-8,0,1-1,1,1V60H23ZM53,45v2H51V45ZM21,47H19V45h2Zm-2,6h2v2H19Zm26-6H43V45h2Zm-2,6h2v2H43ZM39.874,24.485A1,1,0,0,0,39,23H36.868l4.964-7.445A1,1,0,0,0,41,14H39.618L44,5.236,48.382,14H47a1,1,0,0,0-.832,1.555L51.132,23H49a1,1,0,0,0-.874,1.485L52.3,32H35.7ZM45,34v9H43V34ZM37,45v2H35V45Zm-8,0v2H27V45ZM15.813,28.581A1,1,0,0,0,15,27H12.868l4.964-7.445A1,1,0,0,0,17,18H15.685L20,10.088,24.315,18H23a1,1,0,0,0-.832,1.555L27.132,27H25a1,1,0,0,0-.813,1.581L28.057,34H11.943ZM21,36v7H19V36Zm-6,5.414,1-1,1,1V60H15ZM13,45v2H11V45ZM7,41.414l1-1,1,1V60H7ZM3,47V45H5v2Zm0,8V53H5v2Zm8,0V53h2v2Zm16,0V53h2v2Zm8,0V53h2v2Zm16,0V53h2v2Zm10-2v2H59V53Zm0-6H59V45h2Z"/><path d="M35.832,5.555l-1.664-1.11A8.312,8.312,0,0,1,29.259,7.9l-.5.126.486,1.94.5-.126A10.306,10.306,0,0,0,35.832,5.555Z"/><path d="M29.243,15.97l.5-.126a10.306,10.306,0,0,0,6.088-4.289l-1.664-1.11A8.312,8.312,0,0,1,29.259,13.9l-.5.126Z"/><path d="M9.832,16.555l-1.664-1.11A8.312,8.312,0,0,1,3.259,18.9l-.5.126.486,1.94.5-.126A10.306,10.306,0,0,0,9.832,16.555Z"/><path d="M3.243,26.97l.5-.126a10.306,10.306,0,0,0,6.088-4.289l-1.664-1.11A8.312,8.312,0,0,1,3.259,24.9l-.5.126Z"/></g><text x="0" y="79" fill="#000000" font-size="5px" font-weight="bold" font-family="'Helvetica Neue', Helvetica, Arial-Unicode, Arial, Sans-serif">Created by supalerk laipawat</text><text x="0" y="84" fill="#000000" font-size="5px" font-weight="bold" font-family="'Helvetica Neue', Helvetica, Arial-Unicode, Arial, Sans-serif">from the Noun Project</text></svg>